<svg xmlns="http://www.w3.org/2000/svg" viewBox="0 0 32 32">
  <path fill="#FFFFFF" d="M12,10.3968254 L12,9 C12,7.34314575 13.3431458,6 15,6 L25,6 C26.6568542,6 28,7.34314575 28,9 L28,15 C28,16.6568542 26.6568542,18 25,18 L23.0005971,18 L23.0005971,21.3968254 C23.0005971,23.0536796 21.6574514,24.3968254 20.0005971,24.3968254 L9.8217171,24.3968254 L5.49673604,26.8682431 C4.7742291,27.2811043 3.89296409,26.6823633 4.01064761,25.8585786 L5.0005971,18.9289322 L5.0005971,13.3968254 C5.0005971,11.7399711 6.34374286,10.3968254 8.0005971,10.3968254 L12,10.3968254 Z M23.0005971,16 L25,16 C25.5522847,16 26,15.5522847 26,15 L26,9 C26,8.44771525 25.5522847,8 25,8 L15,8 C14.4477153,8 14,8.44771525 14,9 L14,10.3968254 L20.0005971,10.3968254 C21.6574514,10.3968254 23.0005971,11.7399711 23.0005971,13.3968254 L23.0005971,16 Z M6.9905466,19.1414214 L6.27970227,24.1173317 L9.06001372,22.5285823 C9.21111142,22.4422407 9.38212572,22.3968254 9.55615266,22.3968254 L20.0005971,22.3968254 C20.5528819,22.3968254 21.0005971,21.9491101 21.0005971,21.3968254 L21.0005971,13.3968254 C21.0005971,12.8445406 20.5528819,12.3968254 20.0005971,12.3968254 L8.0005971,12.3968254 C7.44831236,12.3968254 7.0005971,12.8445406 7.0005971,13.3968254 L7.0005971,19 L6.9905466,19.1414214 Z"/>
</svg>
